<?xml version="1.0" encoding="UTF-8"?><svg id="Layer_1" xmlns="http://www.w3.org/2000/svg" viewBox="0 0 3058.52 947.9"><defs><style>.cls-1{fill:#fff;}</style></defs><path class="cls-1" d="M1734.33,660.08c-200.85,0-401.41-42.83-584.64-125.33-67.14-30.23-132.85-66.2-196.39-100.97-62.92-34.44-127.98-70.04-194.4-100.07-161.49-73.01-300.88-96.82-426.13-72.79-65.92,12.65-121.4,38.92-160.43,75.98-46.28,43.94-70.07,105.81-62.09,161.48l-.99.14c-8.02-55.99,15.88-118.2,62.39-162.35,39.17-37.19,94.82-63.55,160.93-76.23,67.05-12.86,140.16-11.71,217.3,3.42,65.46,12.84,135.92,36.2,209.43,69.43,66.46,30.04,131.53,65.66,194.47,100.1,63.53,34.77,129.22,70.72,196.32,100.94,207.48,93.42,437.21,135.94,664.38,122.96,201.95-11.54,359.8-68.14,469.16-168.24,43.93-40.2,80.76-88.43,116.38-135.07,28.33-37.1,57.63-75.46,90.38-109.66,70.42-73.54,160.75-129.85,261.22-162.83,100.47-32.98,206.59-41.17,306.9-23.68l-.17.99c-205.56-35.85-422.91,35.51-567.23,186.22-32.71,34.16-61.99,72.5-90.31,109.57-35.65,46.67-72.5,94.94-116.5,135.2-58.47,53.52-131.93,95.1-218.34,123.6-74.3,24.5-158.9,39.61-251.44,44.9-26.71,1.53-53.47,2.29-80.21,2.29Z"/><path class="cls-1" d="M1495.67,646.68c-6.78,0-13.49-.09-20.18-.26-49.57-1.28-95.11-8.03-135.35-20.05-57.2-17.09-108.1-46.91-157.32-75.75-3.12-1.83-6.24-3.66-9.35-5.48-62.78-36.7-125.78-76.13-186.7-114.25-31.3-19.59-63.66-39.84-95.6-59.48-25.05-15.39-58.21-35.35-92.65-53.26-15.92-8.29-31.75-15.92-47.06-22.67-92.05-40.56-188.56-59.58-279.07-54.98-35.19,1.78-69.72,7.1-102.6,15.83-67.47,17.88-120.12,46.73-156.5,85.77-25.51,27.38-45.52,60.81-63.34,92.87-15.21,27.41-33.45,62.01-39.5,86.52l-.97-.24c6.08-24.63,24.35-59.31,39.59-86.77,17.85-32.11,37.9-65.61,63.48-93.06,36.51-39.18,89.32-68.13,156.97-86.06,32.96-8.74,67.54-14.08,102.81-15.86,90.67-4.6,187.33,14.44,279.53,55.07,15.33,6.76,31.19,14.4,47.12,22.7,34.46,17.92,67.65,37.89,92.71,53.29,31.94,19.64,64.31,39.9,95.61,59.48,60.92,38.12,123.9,77.55,186.67,114.24,3.11,1.82,6.23,3.65,9.35,5.48,49.17,28.81,100.01,58.6,157.1,75.66,40.16,12,85.61,18.73,135.09,20.01,38.1,1,77.07-.83,122.65-5.73,37.18-4,75.11-9.83,115.97-17.82,10.87-2.13,21.71-4.45,33.2-6.92,28.28-6.06,57.53-12.33,89.77-16.2,3.82-.46,7.77-.88,11.72-1.25,44.37-4.13,90.87-1.92,128.24-.14,38.48,1.78,79.44,3.05,118.28.3,40.62-3,76.15-8.93,111.82-18.65,35.1-9.53,80.25-24.61,118.27-56.88,44.4-37.7,80.33-85.03,115.08-130.8,24.93-32.84,50.71-66.79,79.48-97.07,65.59-68.99,149.03-122.72,241.3-155.38,92.29-32.67,189.62-42.92,281.47-29.64l-.14.99c-187.77-27.15-387.75,43.63-521.9,184.72-28.74,30.24-54.5,64.17-79.41,96.99-34.78,45.82-70.75,93.19-115.23,130.96-38.16,32.4-83.46,47.53-118.65,57.09-35.73,9.74-71.32,15.67-112.01,18.68-38.89,2.76-79.89,1.49-118.4-.29-37.33-1.78-83.8-3.99-128.1.14-3.94.37-7.87.79-11.69,1.25-32.2,3.86-61.42,10.13-89.68,16.18-11.49,2.46-22.34,4.79-33.21,6.92-40.89,7.99-78.85,13.82-116.06,17.83-37.62,4.05-70.75,6-102.6,6Z"/><path class="cls-1" d="M1462.58,670.02c-27.67,0-58.71-3.06-90.11-12.09-58.77-16.91-107.08-52.42-153.81-86.77-7.03-5.17-14.29-10.51-21.42-15.65-63.65-45.94-129.17-92.83-192.54-138.17-25.79-18.45-51.56-36.9-77.28-55.32-27.82-19.92-57.9-40.9-89.28-59.45-15.92-9.44-31.15-17.63-46.56-25.03-88.11-42.28-188.7-59.56-283.22-48.67-34.77,3.99-68.95,11.67-101.57,22.81-67.64,23.07-117.55,54.33-152.58,95.57-20.01,23.56-37.14,50.73-53.7,77-7.34,11.64-14.93,23.69-22.57,35.06-24.43,36.46-51.47,69.1-67.42,85.28l-.71-.7c15.92-16.14,42.91-48.72,67.3-85.13,7.63-11.36,15.22-23.4,22.56-35.04,16.58-26.3,33.73-53.49,53.79-77.11,35.15-41.39,85.2-72.75,153.01-95.87,32.69-11.17,66.94-18.86,101.78-22.86,94.71-10.92,195.49,6.4,283.77,48.76,15.43,7.41,30.69,15.61,46.63,25.07,31.42,18.57,61.52,39.57,89.36,59.5,25.72,18.43,51.49,36.87,77.28,55.32,63.37,45.34,128.89,92.23,192.54,138.17,7.13,5.15,14.4,10.49,21.43,15.66,46.65,34.29,94.9,69.75,153.49,86.61,56.33,16.21,111.58,13.12,148.01,7.68,49.04-7.3,90.14-21.44,120.47-32.95,37.08-14.06,71.17-29.79,105.71-46.01,3.75-1.76,7.54-3.57,11.39-5.41,31.69-15.11,67.61-32.25,111.91-40.13,4.22-.75,8.56-1.41,12.91-1.94,40.3-4.93,86.89-.73,138.49,12.49,21.56,5.47,40.42,11.01,58.67,16.37,17.96,5.28,34.93,10.26,51.38,14.19,29.38,7.02,62.11,13.51,102.36,13.51.55,0,1.11,0,1.66,0,55.63-.15,98.64-12.93,131.49-39.07,43.92-34.94,78.55-80.63,112.04-124.81,22.09-29.14,44.94-59.28,70.33-86.22,60.77-64.44,137.32-115.59,221.37-147.93,84.12-32.36,172.66-44.67,256.03-35.6l-.11.99c-169.94-18.49-352.56,51.72-476.56,183.22-25.35,26.9-48.18,57.02-70.26,86.14-33.53,44.23-68.21,89.97-112.22,124.99-33.03,26.28-76.24,39.13-132.11,39.28-41.11.18-74.41-6.4-104.26-13.53-16.47-3.94-33.45-8.92-51.43-14.2-18.24-5.35-37.09-10.89-58.63-16.36-51.48-13.18-97.95-17.37-138.12-12.46-4.33.53-8.66,1.18-12.86,1.93-44.17,7.86-80.02,24.96-111.65,40.05-3.85,1.84-7.65,3.65-11.39,5.41-34.57,16.23-68.67,31.97-105.79,46.05-30.38,11.53-71.55,25.69-120.68,33-16.23,2.43-36.2,4.38-58.33,4.38Z"/><path class="cls-1" d="M1475.41,698.81c-24.44,0-48.28-3.09-70.6-9.31-64.18-17.89-113.19-61.28-160.58-103.24-7.61-6.74-15.48-13.7-23.19-20.36-56.18-48.49-115.32-96.84-172.51-143.6-27.88-22.79-56.71-46.37-84.83-69.65-26.53-21.94-55.02-45.08-85.92-65.64-15.65-10.45-30.71-19.41-46.05-27.38-85.48-44.36-190.23-59.8-287.37-42.35-34.37,6.15-68.2,16.18-100.55,29.8-66.04,27.75-114.67,62.23-148.65,105.38-16.98,21.56-32.23,45.55-46.99,68.74-13.39,21.05-27.23,42.82-42.21,62.49-31.54,41.49-69.88,75.22-95.42,83.93l-.32-.95c25.36-8.65,63.52-42.24,94.95-83.59,14.95-19.63,28.79-41.38,42.16-62.42,14.77-23.22,30.03-47.22,47.04-68.82,34.09-43.29,82.85-77.86,149.05-105.68,32.42-13.65,66.32-23.7,100.76-29.86,97.36-17.49,202.33-2.02,288.01,42.45,15.38,7.99,30.47,16.96,46.15,27.44,30.94,20.58,59.45,43.74,86,65.7,28.12,23.29,56.95,46.86,84.83,69.65,57.2,46.76,116.34,95.12,172.53,143.62,7.72,6.67,15.59,13.63,23.2,20.37,47.31,41.89,96.22,85.2,160.19,103.03,49.55,13.81,106.7,12.16,160.94-4.64,51.01-15.76,90.02-40.43,118.31-60.15,25.42-17.72,48.32-36.23,72.57-55.81,7.42-6,15.1-12.2,22.89-18.41l.54-.43c30.89-24.67,69.33-55.37,123.07-67.55,4.59-1.05,9.34-1.93,14.11-2.63,64.66-9.47,125.55,14.42,148.72,25.13,34.09,15.66,59.93,32.96,82.73,48.23,6.6,4.42,12.83,8.59,19.09,12.63,29.67,19.11,57.39,35.73,96.23,45.64,32.36,8.33,94.19,16.64,144.71-21.28,42.87-32.18,76.05-75.82,108.14-118.01,19.55-25.7,39.76-52.28,62.04-76.17,114.11-122.17,279.67-191.92,432.03-182.04l-.06,1c-152.09-9.86-317.32,59.77-431.24,181.72-22.25,23.84-42.44,50.4-61.98,76.09-32.13,42.25-65.35,85.94-108.34,118.21-50.85,38.17-113.03,29.82-145.56,21.45-38.98-9.95-66.77-26.61-96.52-45.77-6.27-4.04-12.51-8.21-19.11-12.64-22.77-15.25-48.58-32.53-82.59-48.15-23.09-10.67-83.76-34.48-148.16-25.04-4.74.69-9.46,1.58-14.03,2.62-53.52,12.12-91.86,42.75-122.67,67.36l-.54.43c-7.78,6.2-15.46,12.4-22.88,18.4-24.26,19.6-47.18,38.11-72.62,55.86-28.35,19.77-67.44,44.48-118.58,60.29-30,9.29-60.9,13.96-90.91,13.96Z"/><path class="cls-1" d="M1498.56,728.99c-21.11,0-41.82-2.62-61.41-7.93-70.93-19.23-121.46-71.58-170.33-122.21-7.21-7.47-14.67-15.2-21.98-22.58-52.55-53.07-108.86-105.62-163.32-156.43-26.84-25.04-54.6-50.94-81.55-76.58-26.74-25.4-53.18-50-82.56-71.83-15.35-11.46-30.25-21.18-45.55-29.73-83.64-46.68-192.62-60.15-291.52-36.03-33.99,8.26-67.47,20.64-99.52,36.79-63.88,32.12-111.23,69.8-144.73,115.19-15.35,20.79-29.54,43.39-43.26,65.24-18.23,29.03-37.08,59.05-58.86,85.16-39.79,47.79-89.37,80.94-123.37,82.49l-.05-1c33.73-1.54,83.02-34.55,122.64-82.14,21.74-26.06,40.57-56.05,58.78-85.05,13.73-21.87,27.93-44.48,43.3-65.3,33.6-45.51,81.06-83.29,145.09-115.49,32.12-16.18,65.67-28.59,99.73-36.87,99.14-24.17,208.38-10.66,292.24,36.13,15.34,8.57,30.28,18.32,45.66,29.8,29.42,21.86,55.88,46.49,82.65,71.91,26.95,25.63,54.71,51.53,81.54,76.57,54.47,50.82,110.79,103.38,163.35,156.46,7.32,7.39,14.78,15.12,21.99,22.59,48.78,50.53,99.21,102.78,169.87,121.94,54.56,14.79,117.94,8.61,173.89-16.96,54.31-24.78,92.3-61.72,116.15-87.35,19.66-21.13,36.79-42.52,54.91-65.16,9.72-12.15,19.78-24.71,30.29-37.26,29.81-35.68,66.43-75.04,123.9-90.44,4.97-1.34,10.12-2.46,15.3-3.32,60.25-10.05,121.6,12.92,158.93,37.77,39.57,26.21,64.38,56.06,86.26,82.4,2.46,2.96,4.9,5.89,7.32,8.78,23.66,28.18,48.12,57.33,88.44,77.76,43.1,21.96,107.23,32.56,157.96-3.51,41.49-29.51,73.18-70.87,103.82-110.88,17.14-22.38,34.86-45.51,54.17-66.46,51.17-55.39,113.93-101.39,181.52-133.02,67.83-31.74,138.78-48.19,205.14-47.53v1c-1.26-.01-2.52-.02-3.78-.02-133.15,0-279.23,68.81-382.15,180.24-19.29,20.91-36.99,44.03-54.12,66.39-30.69,40.06-62.42,81.49-104.03,111.08-23.84,16.96-52.13,24.85-84.06,23.5-25.23-1.08-51.84-8.15-74.93-19.91-40.5-20.53-65.03-49.75-88.76-78.01-2.42-2.89-4.86-5.82-7.32-8.78-21.84-26.29-46.6-56.08-86.05-82.21-37.17-24.75-98.25-47.63-158.21-37.62-5.15.86-10.27,1.97-15.21,3.3-57.19,15.32-93.68,54.55-123.4,90.11-10.5,12.54-20.55,25.1-30.27,37.25-18.14,22.66-35.27,44.07-54.96,65.22-23.91,25.69-61.99,62.72-116.47,87.58-36.08,16.49-75.24,24.94-113.16,24.94Z"/><path class="cls-1" d="M1525.67,759.72c-19.26,0-38.19-2.33-56.19-7.1-78.57-20.81-131-83.11-181.7-143.37-6.29-7.47-12.79-15.2-19.15-22.61-49.34-57.46-102.88-114.4-154.65-169.46-25.62-27.25-52.11-55.42-77.76-83.31-26.65-28.93-51.01-54.77-79.2-78.02-15.03-12.45-29.76-22.95-45.04-32.08-82.3-49.14-195.59-60.53-295.67-29.72-33.65,10.33-66.78,25.06-98.49,43.77-60.42,35.59-107.79,77.65-140.81,125-14.09,20.21-27.41,41.82-40.29,62.71-22.67,36.78-46.11,74.81-74.74,106.85-22.46,25.17-49.25,47-75.43,61.46-27.9,15.42-54.12,22.19-75.83,19.57l.12-.99c42.32,5.08,102.77-27.34,150.39-80.71,28.57-31.97,51.99-69.97,74.64-106.71,12.89-20.9,26.21-42.52,40.32-62.76,33.1-47.47,80.58-89.63,141.13-125.29,31.78-18.76,64.99-33.52,98.71-43.87,47.83-14.73,99.83-20.18,150.39-15.76,53.45,4.67,103.97,20.43,146.09,45.58,15.33,9.16,30.1,19.69,45.17,32.17,28.24,23.29,52.62,49.16,79.3,78.12,25.65,27.88,52.14,56.06,77.75,83.3,51.78,55.07,105.32,112.02,154.68,169.5,6.37,7.42,12.87,15.15,19.16,22.62,50.6,60.13,102.92,122.32,181.19,143.04,59.5,15.76,129.35,4.81,186.85-29.27,43.53-25.77,79.76-62.17,114.01-114.55,16.54-25.3,30.36-50.57,44.98-77.33,9.51-17.41,19.35-35.4,29.96-53.3,26.8-45.32,62.52-94.17,124.17-112.89,5.35-1.63,10.9-2.98,16.5-4.01,28.81-5.31,60.83-2.62,92.62,7.78,28.31,9.26,55.48,24.41,76.51,42.64,42.35,36.57,63.83,79.04,82.78,116.52l3.34,6.59c19.44,38.35,39.55,78.02,79.87,108.29,43.78,32.98,116.03,51.51,171.24,14.25,39.95-26.96,70.16-65.97,99.38-103.69,14.76-19.06,30.03-38.76,46.42-56.79,46.4-50.91,102.27-94.33,161.58-125.56,59.72-31.45,121.86-49.94,179.7-53.49l.06,1c-117.87,7.23-245.2,74.04-340.6,178.73-16.37,18-31.62,37.69-46.37,56.73-29.27,37.79-59.53,76.86-99.61,103.91-21.73,14.66-46.08,20.76-70.3,20.76-37.78,0-75.26-14.81-102.1-35.03-40.51-30.42-60.67-70.18-80.16-108.64l-3.34-6.59c-18.91-37.39-40.35-79.77-82.54-116.21-38.45-33.34-105.41-61.79-168.29-50.2-5.56,1.03-11.08,2.37-16.39,3.99-61.33,18.61-96.9,67.28-123.6,112.44-10.6,17.88-20.43,35.87-29.94,53.27-14.63,26.78-28.46,52.07-45.02,77.4-34.34,52.51-70.67,89.01-114.34,114.86-40.34,23.91-86.74,36.48-131.42,36.48Z"/><path class="cls-1" d="M1555.25,790.84c-18.36,0-36.34-2.22-53.44-6.65-38.94-10.1-75.05-31.64-110.41-65.84-31.2-30.19-57.95-66.2-83.82-101.02-4.98-6.7-10.12-13.62-15.15-20.3-46.45-61.69-97.15-123.12-146.18-182.52-24.31-29.45-49.45-59.91-73.76-90.02-25.41-31.43-48.66-59.47-75.84-84.21-14.7-13.44-29.27-24.71-44.54-34.44-82.53-52.51-197.42-61.48-299.83-23.41-33.81,12.54-65.69,29.15-97.47,50.76-57.43,39-103.49,84.36-136.89,134.82-12.88,19.46-25.28,39.99-37.26,59.84-27,44.73-54.93,90.98-90.68,128.88-26.02,27.62-57.34,50.73-88.17,65.07-33.21,15.45-64.66,20.46-90.95,14.5l.22-.97c50.99,11.56,122.59-20.3,178.17-79.28,35.68-37.82,63.57-84.03,90.55-128.71,11.99-19.86,24.39-40.4,37.29-59.88,33.48-50.57,79.63-96.02,137.16-135.09,31.84-21.66,63.79-38.3,97.68-50.87,48.14-17.9,100.88-25.68,152.53-22.5,54.95,3.38,106.19,19.29,148.18,46,15.32,9.76,29.94,21.06,44.68,34.54,27.23,24.79,50.5,52.86,75.94,84.32,24.3,30.1,49.44,60.56,73.75,90.01,49.04,59.41,99.75,120.85,146.21,182.56,5.03,6.68,10.18,13.61,15.16,20.31,52.6,70.79,106.98,144,193.68,166.49,64.32,16.68,140.88.75,199.82-41.58,45.73-32.82,81.28-77.86,111.88-141.76,14.33-29.92,26.18-60.97,37.64-91,8.47-22.18,17.22-45.12,27.04-67.84,14.32-33.21,28.76-58.25,45.44-78.79,22.58-27.82,48.42-46.31,78.99-56.53,5.73-1.92,11.68-3.51,17.69-4.71,31.08-6.2,65.42-2.64,99.31,10.3,30.64,11.7,59.05,30.44,79.99,52.77,43.94,46.69,61.24,101.66,76.49,150.16l1.13,3.59c15.41,49,31.35,99.66,72.33,140.12,44.65,44.21,124.5,70.44,184.54,32,38.39-24.58,67.23-61.27,95.12-96.75,12.32-15.67,25.05-31.87,38.49-46.89,85.69-95.57,196.3-161.95,295.89-177.56l.15.99c-99.36,15.57-209.76,81.83-295.3,177.24-13.41,15-26.14,31.19-38.45,46.84-27.94,35.54-56.84,72.3-95.37,96.97-36.45,23.34-75.08,20.83-101.08,14.62-31.39-7.5-62.26-24.54-84.69-46.75-41.15-40.63-57.13-91.41-72.58-140.53l-1.13-3.59c-15.23-48.39-32.48-103.24-76.27-149.77-37.43-39.9-109.21-76.57-178.38-62.77-5.97,1.19-11.88,2.76-17.57,4.67-68.06,22.77-101.93,83.98-123.83,134.78-9.81,22.7-18.56,45.63-27.02,67.8-11.47,30.05-23.33,61.12-37.67,91.07-30.67,64.06-66.32,109.22-112.2,142.14-27.68,19.88-60.01,34.47-93.5,42.19-17.93,4.13-36,6.2-53.72,6.2Z"/><path class="cls-1" d="M1585.82,822.09c-17.7,0-35.06-2.11-51.67-6.34-43.08-10.97-82.37-35.7-120.1-75.58-33.23-35.12-60.89-76.96-87.65-117.43-3.41-5.15-6.79-10.27-10.16-15.34-43.81-65.85-91.61-131.8-137.84-195.57-22.95-31.67-46.69-64.41-69.64-96.73-24.95-35.09-46.12-64.03-72.48-90.4-14.37-14.44-28.77-26.47-44.04-36.79-81.75-55.2-201.07-61.91-303.98-17.1-33.55,14.58-65.09,33.47-96.44,57.75-54.03,41.77-98.76,90.43-132.97,144.63-11.57,18.33-22.87,37.46-33.8,55.97-31.36,53.09-63.78,107.99-107.05,151.9-29.58,30.04-65.41,54.43-100.91,68.68-38.51,15.46-75.18,18.72-106.06,9.43l.29-.96c68.91,20.73,153.1-24.17,205.96-77.86,43.18-43.82,75.57-98.66,106.9-151.7,10.94-18.52,22.24-37.66,33.82-56,34.27-54.3,79.08-103.05,133.2-144.89,31.42-24.33,63.03-43.26,96.66-57.88,48.38-21.07,101.87-31.18,154.67-29.24,56.4,2.07,108.36,18.13,150.27,46.42,15.32,10.36,29.77,22.43,44.19,36.91,26.41,26.43,47.61,55.4,72.59,90.53,22.95,32.32,46.68,65.06,69.63,96.72,46.23,63.78,94.04,129.74,137.86,195.61,3.37,5.07,6.76,10.19,10.17,15.34,52.11,78.81,111.17,168.14,207.16,192.59,70.05,17.84,151.58-2.81,212.8-53.9,47.24-39.4,83.14-94.67,109.75-168.97,12.47-34.81,22.04-70.75,31.29-105.52,7.1-26.68,14.45-54.28,23.12-81.53,12-37.74,25.98-67.86,42.77-92.08,22.11-31.92,49.67-54.02,81.9-65.67,6.11-2.21,12.46-4.03,18.88-5.4,33.34-7.09,70-2.66,106,12.82,32.93,14.16,62.57,36.49,83.47,62.88,45.21,56.95,57.7,123.44,68.71,182.1l.44,2.31c11.38,59.62,23.14,121.28,64.75,171.91,38.59,47.05,125.49,93.6,197.85,49.77,37.01-22.42,64.68-56.99,91.43-90.42,9.67-12.09,19.67-24.58,29.99-36.37,37.11-42.24,79.2-80.5,121.71-110.64,44.32-31.43,87.65-53.43,128.78-65.41l.28.96c-81.65,23.78-172.77,87.84-250.01,175.75-10.31,11.77-20.3,24.26-29.96,36.33-26.8,33.5-54.52,68.14-91.69,90.65-40.02,24.24-81.73,18.84-109.67,10.04-34.48-10.86-67.09-32.74-89.47-60.03-41.77-50.83-53.55-112.61-64.96-172.36l-.44-2.31c-10.99-58.55-23.46-124.9-68.51-181.66-38.88-49.1-116.1-90.74-188.48-75.35-6.37,1.36-12.68,3.16-18.75,5.36-75.06,27.15-106.75,102.67-124.06,157.12-8.67,27.23-16.01,54.81-23.11,81.48-9.26,34.79-18.83,70.75-31.32,105.6-26.67,74.48-62.67,129.89-110.05,169.41-28.59,23.86-62.76,41.74-98.81,51.7-21.09,5.83-42.38,8.75-63.2,8.75Z"/><path class="cls-1" d="M1617.15,853.46c-17.32,0-34.33-2.04-50.67-6.14-106.66-26.73-168-130.6-222.13-222.24l-4.31-7.29c-41.39-70-86.23-140.48-129.59-208.64-21.55-33.87-43.83-68.9-65.41-103.43-19.45-31.09-41.5-66.33-69.12-96.6-14.03-15.43-28.27-28.23-43.54-39.14-93.7-66.92-222.28-53.64-308.14-10.79-33.32,16.61-64.53,37.78-95.42,64.74-50.16,43.73-93.58,95.69-129.05,154.45-10.06,16.68-20.04,33.95-29.68,50.66-35.79,62.03-72.81,126.17-124.08,176.36-33.12,32.44-73.48,58.11-113.64,72.28-43.8,15.46-85.7,16.97-121.16,4.37l.34-.94c78.94,28.05,174.29-18.18,233.77-76.43,51.18-50.09,88.15-114.17,123.91-176.14,9.64-16.71,19.62-34,29.69-50.68,35.52-58.85,79-110.89,129.24-154.69,30.95-27.01,62.23-48.23,95.63-64.88,47.87-23.89,103.58-36.67,156.81-35.98,57.81.75,110.5,16.95,152.36,46.84,15.32,10.95,29.62,23.8,43.69,39.28,27.68,30.33,49.75,65.61,69.23,96.74,21.58,34.53,43.86,69.55,65.41,103.42,43.37,68.17,88.21,138.66,129.61,208.67l4.31,7.29c54.02,91.47,115.25,195.14,221.51,221.77,74.64,18.71,163.27-7.28,225.78-66.22,49.33-46.49,84.54-110.67,107.62-196.2,10.76-39.87,18.18-80.91,25.36-120.6,5.61-31.01,11.4-63.07,18.79-94.66,9.97-42.72,23.09-77.19,40.1-105.37,21.97-36.4,50.5-61.57,84.82-74.81,6.49-2.51,13.24-4.56,20.07-6.09,35.61-7.98,74.57-2.68,112.69,15.35,35.18,16.63,66.06,42.56,86.94,73,45.81,66.63,53.56,144.06,60.41,212.37l.08.74c7.24,70.93,14.73,144.28,57.36,205.66,44.9,64.74,138.41,108.97,211.18,67.54,36.17-20.59,63.01-53.56,88.96-85.44,6.59-8.09,13.4-16.46,20.26-24.5,69.92-81.67,142.75-143.65,205.06-174.53l.44.9c-62.19,30.82-134.9,92.72-204.74,174.28-6.86,8.03-13.66,16.4-20.25,24.48-26.01,31.95-52.92,64.99-89.25,85.68-34.14,19.44-76.17,21.32-118.34,5.3-36.91-14.02-72.11-41.37-94.15-73.14-42.77-61.59-50.28-135.07-57.53-206.12l-.08-.74c-6.83-68.19-14.58-145.49-60.24-211.91-38.19-55.65-120.76-105.39-198.59-87.94-6.78,1.52-13.48,3.55-19.93,6.04-60.93,23.5-101.59,82.21-124.3,179.48-7.38,31.56-13.18,63.62-18.78,94.61-7.18,39.71-14.6,80.77-25.38,120.68-23.13,85.71-58.43,150.04-107.9,196.67-29.51,27.82-65.51,48.98-104.12,61.2-23.97,7.58-48.24,11.4-71.91,11.4Z"/><path class="cls-1" d="M1649.01,884.89c-17.13,0-33.96-2-50.2-6.01-118.01-29.15-182.85-152-234.96-250.71-39.15-74.17-80.98-149.19-121.43-221.74-20.11-36.07-40.91-73.37-61.12-110.1-18.24-33.12-38.91-70.67-65.77-102.79-13.69-16.41-27.77-29.99-43.04-41.49-94.07-70.85-227.83-51.99-312.3-4.48-33.14,18.62-64.01,42.08-94.39,71.72-45.76,44.61-87.86,99.88-125.12,164.27-8.33,14.39-16.67,29.21-24.74,43.54-40.35,71.68-82.07,145.8-141.93,202.63-36.67,34.84-81.55,61.79-126.37,75.89-49.1,15.45-96.22,15.21-136.26-.69l.37-.93c88.97,35.32,195.48-12.21,261.57-74.99,59.75-56.73,101.43-130.78,141.74-202.4,8.07-14.33,16.41-29.15,24.74-43.55,37.31-64.47,79.46-119.81,125.29-164.49,30.45-29.7,61.39-53.22,94.6-71.88,48.01-27,104.46-42.17,158.95-42.71,59.23-.6,112.61,15.75,154.44,47.26,15.33,11.55,29.46,25.18,43.2,41.65,26.91,32.19,47.61,69.78,65.87,102.94,20.21,36.73,41,74.03,61.11,110.1,40.45,72.55,82.28,147.58,121.44,221.76,52.01,98.53,116.74,221.16,234.31,250.21,80.32,19.84,174.04-10.99,238.76-78.54,51.4-53.63,85.91-126.71,105.5-223.43,9.13-45.06,14.46-91.31,19.61-136.05,4.05-35.21,8.25-71.62,14.28-107.42,18.17-108.02,60.28-176.18,125.15-202.6,6.87-2.8,14.02-5.08,21.25-6.78,37.32-8.75,79.71-2.41,119.37,17.87,37.41,19.12,69.52,48.64,90.42,83.11,20.27,33.4,33.97,72.19,41.89,118.59,6.81,39.9,8.66,79.79,10.21,124.06,2.97,81.75,6.03,166.28,49.68,238.57,45.07,74.72,146.04,126.83,224.51,85.32,36.7-19.42,63.48-52.13,89.38-83.77,2.55-3.11,5.09-6.22,7.65-9.32,53.23-64.33,109.39-130.67,159.61-172.98l.64.76c-50.16,42.25-106.29,108.56-159.49,172.85-2.55,3.09-5.1,6.2-7.64,9.31-25.96,31.72-52.81,64.51-89.69,84.03-37.23,19.7-82.37,19.82-127.11.34-39.77-17.31-76.67-49.47-98.73-86.03-43.78-72.52-46.85-157.18-49.82-239.05-2.61-74.04-5.85-166.18-51.96-242.16-38.46-63.44-124.68-120.23-208.7-100.53-7.18,1.69-14.29,3.95-21.11,6.73-64.53,26.27-106.43,94.18-124.54,201.84-6.03,35.78-10.22,72.17-14.27,107.37-5.15,44.75-10.48,91.03-19.62,136.13-19.63,96.9-54.23,170.15-105.76,223.92-30.43,31.77-68.28,56.21-109.43,70.71-26.67,9.39-53.74,14.12-80.09,14.12Z"/><path class="cls-1" d="M1681.22,916.38c-17.06,0-33.84-1.97-50.08-5.93-55.45-13.52-103.83-47.77-147.92-104.72-39.17-50.59-69.86-112.82-95.56-167.17-37.05-78.38-75.82-157.92-113.31-234.84-18.65-38.27-37.93-77.83-56.77-116.77-17-35.13-36.28-74.96-62.41-108.98-13.35-17.4-27.26-31.74-42.54-43.84-95.07-75.3-230.69-51.84-316.47,1.83-32.98,20.63-63.52,46.38-93.37,78.71-41.85,45.32-80.36,100.64-121.19,174.09-6.31,11.35-12.69,22.99-18.85,34.23-45.04,82.17-91.61,167.14-160.71,231.09-40.22,37.22-89.62,65.45-139.1,79.49-54.4,15.43-106.74,13.45-151.36-5.75l.4-.92c99,42.58,216.68-6.27,289.39-73.56,68.98-63.83,115.52-148.73,160.52-230.83,6.17-11.25,12.54-22.88,18.86-34.24,40.87-73.52,79.43-128.9,121.33-174.28,29.91-32.4,60.51-58.21,93.57-78.88,48.11-30.1,105.32-47.67,161.09-49.45,60.58-1.93,114.7,14.55,156.53,47.68,15.34,12.15,29.31,26.55,42.71,44.02,26.19,34.1,45.49,73.97,62.52,109.15,18.83,38.93,38.12,78.5,56.77,116.77,37.49,76.92,76.26,156.46,113.31,234.85,57.35,121.33,123.35,242.22,242.81,271.35,86,20.97,184.83-14.69,251.75-90.86,53.43-60.8,87.25-142.79,103.37-250.66,7.53-50.33,10.78-101.9,13.93-151.77,2.48-39.32,5.05-79.98,9.69-119.91,6.04-51.93,17.73-96.32,34.75-131.93,21.69-45.36,52.18-76.68,90.63-93.07,7.24-3.09,14.79-5.6,22.44-7.47,39.54-9.64,84.31-2.4,126.05,20.39,39.05,21.31,73.27,55.29,93.88,93.22,20.38,37.48,33.28,81.03,39.42,133.16,5.31,45.08,5.13,89.96,4.39,139.75-1.27,87.85-2.71,187.43,41.92,270.75,44.76,83.59,151.02,144.97,237.86,103.1,33.19-16,57.91-42.05,84.83-76.23,34.32-43.49,64.31-91.64,90.77-134.12,8.18-13.13,15.9-25.53,23.41-37.26l.84.54c-7.51,11.72-15.23,24.12-23.4,37.25-26.47,42.51-56.47,90.68-90.83,134.21-27,34.3-51.82,60.43-85.18,76.52-40.55,19.55-88.85,17.79-136.01-4.95-43.16-20.81-80.76-56.74-103.16-98.58-44.76-83.55-43.31-183.27-42.04-271.24,1.25-83.29,2.79-186.95-43.69-272.42-39.27-72.25-131.85-134.31-218.82-113.12-7.6,1.85-15.1,4.35-22.29,7.42-68.92,29.39-110.91,104.82-124.78,224.2-4.64,39.9-7.21,80.54-9.69,119.85-3.15,49.89-6.41,101.48-13.94,151.85-16.16,108.06-50.05,190.22-103.61,251.17-30.92,35.19-71.67,63.67-114.75,80.21-29.25,11.23-58.99,16.9-87.92,16.9Z"/><path class="cls-1" d="M1713.7,947.9c-17.08,0-33.9-1.95-50.21-5.89-58.86-14.19-109.66-50.87-155.29-112.15-40.83-54.84-71.8-122.23-96.71-180.92l-157.61-371.38c-23.77-56.02-50.72-119.51-101.09-161.36-91.88-76.35-230.85-53.7-320.63,8.14-95.48,65.77-155.9,169.25-209.61,269.61-3.98,7.43-7.95,14.89-11.92,22.36-49.87,93.66-101.43,190.51-180.55,262.11-43.77,39.61-97.69,69.12-151.83,83.1-59.69,15.41-117.25,11.67-166.46-10.8l.41-.91c109.03,49.81,237.87-.33,317.2-72.12,78.99-71.48,130.51-168.26,180.34-261.84,3.98-7.47,7.95-14.92,11.92-22.36,53.76-100.47,114.26-204.07,209.92-269.96,48.19-33.19,106.16-53.15,163.22-56.19,61.92-3.3,116.77,13.33,158.62,48.1,50.56,42.01,77.55,105.62,101.37,161.74l157.61,371.38c56.95,134.18,126.8,262.48,251.31,292.49,90.28,21.76,196.68-19.71,264.75-103.19,55.44-67.99,88.56-158.89,101.25-277.89,5.93-55.67,7.12-112.61,8.27-167.67.9-43.38,1.84-88.23,5.09-132.21,6.68-90.4,33.89-206.71,125.62-247.41,43.92-19.49,95.47-16.4,145.16,8.69,46.22,23.34,85.79,63.21,108.56,109.39,20.49,41.56,32.58,89.88,36.95,147.73,3.79,50.21,1.59,100.11-1.44,155.45-5.36,97.73-11.43,208.51,34.16,302.94,44.01,91.15,155.45,161.48,251.21,120.88,82.05-34.78,116.45-130.68,141.39-229.12l.97.25c-10.94,43.18-25.11,93-47.25,135.12-24.81,47.21-55.79,78.18-94.72,94.68-44.22,18.75-95.75,14.92-145.1-10.79-45.86-23.89-85.01-64.2-107.4-110.58-45.7-94.66-39.62-205.57-34.26-303.43,5.07-92.57,11.39-207.79-35.41-302.68-44.87-90.98-157-159.95-252.41-117.61-91.28,40.5-118.37,156.44-125.03,246.57-3.25,43.96-4.18,88.79-5.08,132.16-1.15,55.09-2.34,112.05-8.28,167.76-5.8,54.44-16.22,104.04-30.96,147.42-17.21,50.66-40.94,94.74-70.5,131-31.84,39.05-74.48,70.91-120.05,89.71-31.74,13.09-64.06,19.71-95.49,19.71Z"/><path class="cls-1" d="M1725.46,882.08c-17.64,0-34.99-2.06-51.77-6.21-123.16-30.44-191.52-155.29-245.93-269.93-46.55-98.05-97.53-204.67-160.44-335.54l-2.5-5.21c-24.76-51.6-50.37-104.95-97.06-138.41-91.36-65.49-229.24-34.14-318.21,30.67-87.36,63.61-147.08,156.47-200.76,246.12-4.94,8.24-9.83,16.47-14.7,24.68l-1.64,2.76c-57.77,97.4-117.5,198.11-206.1,269.64-45.86,37.04-101.22,64.18-155.87,76.42-60.43,13.54-118.82,8.98-168.85-13.17l.41-.91c96.35,42.65,223.4,17.87,323.69-63.12,88.45-71.42,148.14-172.05,205.86-269.37l1.64-2.76c4.87-8.21,9.77-16.44,14.7-24.68,53.73-89.75,113.52-182.7,201.03-246.42,48.02-34.98,105.34-58.11,161.39-65.13,61.21-7.67,115.85,4.25,158,34.46,46.89,33.61,72.56,87.08,97.38,138.79l2.5,5.21c62.91,130.87,113.89,237.49,160.44,335.54,54.31,114.43,122.53,239.05,245.26,269.39,84.85,20.98,186.11-14.28,251.98-87.73,28.34-31.61,51.47-70.1,68.75-114.38,14.83-38,25.82-81.54,32.68-129.42,7-49.13,9.58-99.31,12.08-147.83,1.93-37.59,3.93-76.46,7.97-114.57,5.32-50.04,16.39-92.75,32.93-126.96,21.04-43.54,50.96-73.17,88.93-88.06,41.32-16.12,89.8-11.58,136.52,12.8,43.46,22.68,81.26,60.44,103.71,103.61,26.56,51.04,39.98,110.19,43.51,191.79,1.26,29.36,1.16,58.83.92,88.96-.73,89.18-1.57,190.26,44.23,274.94,44.24,81.97,151.48,143.8,240.6,105.2,86.06-37.28,123.66-137.07,152.14-227.68l.95.3c-14.24,45.28-30.64,92.79-54.09,133.47-26.94,46.73-59.19,77.75-98.6,94.83-41.78,18.1-90.74,15.65-137.85-6.9-43.48-20.81-81.39-56.8-104.02-98.74-45.92-84.91-45.09-186.13-44.35-275.43.24-30.11.34-59.57-.92-88.9-3.53-81.44-16.92-140.46-43.4-191.37-43.68-83.99-150.13-150.61-238.98-115.94-84.92,33.3-112.8,134.86-121.22,214.19-4.04,38.08-6.04,76.94-7.97,114.51-2.5,48.54-5.08,98.74-12.08,147.92-6.87,47.96-17.89,91.58-32.74,129.64-17.32,44.4-40.52,82.98-68.94,114.69-30.84,34.39-71.55,62.14-114.63,78.15-28.79,10.7-58.05,16.09-86.57,16.09Z"/><path class="cls-1" d="M2675.09,841.97c-23.28,0-47.39-5.13-71.09-15.37-41.07-17.74-77.74-49.4-100.63-86.86-46.24-75.36-50.6-166.77-54.45-247.42-1.21-24.82-2.57-52.95-5.27-81.12-4.89-50.64-14.76-116.5-47.97-176.74-42.29-76.76-140.55-142.27-225.56-114.27-63.01,21-102.52,82.17-117.42,181.82-4.81,32.27-7.85,65.22-10.79,97.08-3.87,41.93-7.87,85.29-15.96,127.87-7.94,41.32-19.51,78.84-34.4,111.49-17.46,38.29-40.17,71.51-67.5,98.74-29.86,29.71-68.64,53.36-109.2,66.6-44.21,14.42-89.5,16.48-130.97,5.94-52.79-13.41-99.76-45.01-143.61-96.61-39.43-46.4-70.35-101.85-96.24-150.18-48.97-91.35-100.85-186.58-163.27-299.7-1.92-3.49-3.84-7-5.77-10.52-24-43.84-48.81-89.17-92.26-115.37-94.95-57.25-230.26-12.55-315.8,53.2-88.14,67.69-153.22,167.54-205.51,247.77l-5.25,8.04c-3.53,5.41-7.05,10.8-10.57,16.18-65.04,99.5-131.04,194.27-223,260.34-48.62,34.95-103.92,59.07-159.91,69.75-61.14,11.67-120.36,6.3-171.25-15.53l.39-.92c117.69,50.48,247.72,5.14,330.18-54.12,91.83-65.96,157.76-160.66,222.75-260.07,3.52-5.38,7.04-10.77,10.56-16.18l5.25-8.04c52.33-80.29,117.47-180.22,205.74-248.02,47.98-36.89,104.57-63.22,159.33-74.14,60.45-12.06,114.94-4.84,157.59,20.88,43.68,26.34,68.56,71.79,92.62,115.74,1.93,3.52,3.85,7.03,5.77,10.51,62.43,113.12,114.31,208.36,163.28,299.71,58.2,108.66,124.62,217.18,239.22,246.29,80.62,20.48,174.52-7.89,239.22-72.28,27.25-27.15,49.89-60.27,67.3-98.45,14.85-32.59,26.4-70.02,34.32-111.27,8.08-42.54,12.08-85.87,15.95-127.78,2.94-31.88,5.98-64.84,10.8-97.13,6.47-43.23,17.83-79.81,33.77-108.71,20.54-37.24,48.92-62.11,84.32-73.91,38.71-12.75,84.12-6.75,127.88,16.9,40.7,22,76.74,57.66,98.87,97.83,33.3,60.4,43.19,126.39,48.09,177.13,2.7,28.2,4.06,56.34,5.27,81.17,3.84,80.53,8.19,171.81,54.3,246.95,44.25,72.42,144.76,127.24,229.99,89.51,85.99-38.06,127.62-132.63,162.89-226.24l.94.35c-15.87,42.11-34.97,90.49-60.94,131.82-29.07,46.25-62.59,77.32-102.48,94.98-18.58,8.22-38.72,12.32-59.53,12.32Z"/><path class="cls-1" d="M2669.71,827.94c-63.1,0-125.75-37.95-160.22-86.97-46.74-66.06-56.2-147.54-64.54-219.42l-.25-2.15c-2.72-23.17-5.54-47.12-9.36-71.19-7.46-46.54-20.18-107.03-52.53-162.12-42.06-71.69-132.91-133.41-212.14-112.6-57.71,15.16-95.94,65.44-113.62,149.45-5.57,26.56-9.62,53.69-13.54,79.92-5.26,35.22-10.7,71.65-19.9,107.55-9.15,35.17-20.94,65.71-36.05,93.34-17.6,32.19-39.83,60.04-66.07,82.79-29.31,25.38-65.2,44.41-103.78,55.04-41.83,11.52-84.57,12.21-123.6,2-49.72-13.01-94.79-42.07-137.77-88.83-37.43-40.72-67.95-88.93-96.01-134.81-50.53-82.55-104.87-168.86-166.1-263.85-2.77-4.3-5.53-8.65-8.3-13.02-23.46-37.02-47.71-75.29-88.21-95.13-101.1-49.53-232.01,9.84-313.39,75.73-79.9,64.62-140.82,150.99-199.73,234.51-3.51,4.98-7.02,9.95-10.52,14.91-6.28,8.87-11.82,16.64-16.92,23.76-76.45,106.64-146.22,189.67-238.27,248.27-50.68,32.29-107.37,54.1-163.94,63.08-61.83,9.81-121.88,3.63-173.64-17.89l.38-.92c99.24,41.25,228.24,23.97,336.67-45.11,91.91-58.52,161.61-141.47,237.99-248.01,5.1-7.12,10.64-14.88,16.92-23.75,3.5-4.96,7.01-9.93,10.52-14.91,58.95-83.58,119.91-170.01,199.92-234.71,48.12-38.96,103.89-68.5,157.03-83.17,59.62-16.46,114.06-13.93,157.43,7.32,40.75,19.96,65.08,58.36,88.61,95.49,2.77,4.37,5.53,8.72,8.29,13.02,61.24,95,115.58,181.31,166.11,263.87,62.22,101.75,126.87,195.38,233.18,223.2,75.02,19.63,163.91-2.67,226.46-56.82,26.15-22.67,48.3-50.43,65.84-82.52,15.07-27.56,26.83-58.02,35.96-93.11,9.19-35.85,14.63-72.25,19.88-107.44,3.92-26.25,7.98-53.4,13.55-79.98,17.76-84.41,56.23-134.95,114.34-150.21,36.05-9.47,78.39-2.03,119.21,20.93,37.93,21.34,72.21,54.92,94.04,92.13,32.44,55.23,45.18,115.84,52.66,162.46,3.83,24.09,6.64,48.06,9.37,71.24l.25,2.15c8.33,71.76,17.77,153.1,64.37,218.96,45.37,64.54,139.84,109.81,219.38,73.83,86.01-38.9,131.22-128.53,173.64-224.79l.92.4c-19.37,43.94-40.56,90.19-67.79,130.15-31.2,45.77-65.98,76.89-106.36,95.15-19.55,8.84-40,12.81-60.39,12.81Z"/><path class="cls-1" d="M197.39,826.93c-44.42,0-87.27-7.73-126.25-23.43l.37-.93c101.72,40.98,230,27.49,343.16-36.1,107.74-60.5,188.47-153.22,253.24-235.95,5.8-7.4,11.69-15.02,18.02-23.29,9.77-12.79,19.7-25.97,29.3-38.72,56.16-74.54,114.23-151.62,185.85-212.51,85.06-72.41,211.69-136.29,311.98-98.44,37.96,14.33,61.97,46.31,85.19,77.24,3.35,4.46,6.81,9.07,10.23,13.5,61.01,79.17,116.27,153.76,168.95,228.04,54.13,76.43,121.5,171.55,227.14,200.11,84.17,22.75,165.58-6.46,213.71-41.38,25.02-18.19,46.69-40.6,64.39-66.59,15.04-22.08,27.69-47.3,37.6-74.96,10.44-29.13,17.34-58.59,24.01-87.09,4.83-20.64,9.83-41.98,16.11-62.85,21-69.49,57.18-108.02,110.58-117.79,33.42-6.11,72.68,2.77,110.56,25.01,35.67,20.95,67.35,51.62,89.19,86.37,31.19,49.54,46.43,102.51,57.23,147.8,4.61,19.5,8.53,38.8,12.32,57.46l1.66,8.14c15.28,75.8,30.47,137.99,74.43,190.97,44.97,54.19,133.42,92.98,208.78,58.15,93.12-43.03,143.73-143.01,184.4-223.34l.89.45c-23.11,45.65-46.21,89.82-74.65,128.47-33.32,45.27-69.38,76.46-110.22,95.33-20.03,9.26-40.99,13.35-61.81,13.35-57.97,0-114.9-31.69-148.16-71.77-44.11-53.16-59.33-115.47-74.64-191.41l-1.65-8.14c-3.79-18.66-7.71-37.94-12.31-57.43-10.78-45.2-25.99-98.07-57.1-147.5-21.76-34.61-53.32-65.17-88.85-86.04-37.67-22.12-76.69-30.96-109.87-24.89-53,9.7-88.92,48-109.81,117.09-6.27,20.84-11.26,42.17-16.09,62.79-6.68,28.52-13.59,58.01-24.04,87.2-9.94,27.74-22.63,53.04-37.71,75.19-17.77,26.09-39.51,48.58-64.63,66.84-28.37,20.59-62.38,35.62-98.34,43.47-39.46,8.62-79.65,7.95-116.22-1.94-105.99-28.65-173.48-123.93-227.7-200.49-52.67-74.27-107.93-148.86-168.93-228.01-3.42-4.44-6.88-9.05-10.23-13.52-23.13-30.82-47.05-62.69-84.75-76.91-99.89-37.7-226.14,26.05-310.98,98.27-71.54,60.81-129.58,137.85-185.7,212.35-9.6,12.74-19.53,25.92-29.31,38.72-6.33,8.27-12.23,15.89-18.03,23.3-64.83,82.8-145.64,175.62-253.53,236.2-70.07,39.38-145.96,59.59-217.77,59.59Z"/><path class="cls-1" d="M196.74,841.42c-48.13,0-93.64-8.27-135.76-24.72l.36-.93c104.45,40.79,231.89,30.91,349.65-27.1,91.34-44.95,176.65-116.09,268.48-223.89,6.2-7.28,12.64-14.95,19.13-22.83,16.84-20.46,33.79-41.8,50.19-62.44,52.32-65.85,106.42-133.95,169.67-190.39,49.77-44.47,102.2-79.38,151.63-100.95,58.57-25.57,111.69-32.32,157.88-20.07,35.27,9.35,59.16,35.33,82.27,60.45,3.82,4.15,7.76,8.44,11.65,12.53,60.01,63.07,117.81,127.74,171.8,192.21l3.55,4.25c57.17,68.44,121.97,146,217.57,172.78,77.13,21.6,154.39.77,200.98-25.93,23.85-13.72,45.03-30.77,62.94-50.68,15.07-16.75,28.27-35.86,39.23-56.82,11.59-22.14,19.97-44.39,28.08-65.91,5.76-15.29,11.72-31.11,18.73-46.55,15.49-33.92,43.42-79.67,106.83-85.34,31.24-2.79,66.47,7.27,101.91,29.1,32.84,20.23,62.79,48.85,84.34,80.61,29.63,43.61,47.21,89.75,61.79,133.13,4.75,14.25,9.12,28.31,13.36,41.91,1.67,5.36,3.32,10.66,4.97,15.9,19.52,62.61,39.35,118.08,84.5,162.99,46.11,45.86,128.99,75.18,198.19,42.48,93.17-44.01,147.35-138.52,195.15-221.9l.87.5c-23.2,40.46-49.49,86.32-81.51,126.76-35.45,44.77-72.76,76.02-114.08,95.54-32.67,15.43-70.33,18.32-108.89,8.34-33.61-8.69-66.57-27.29-90.43-51.02-45.31-45.07-65.19-100.66-84.75-163.4-1.65-5.24-3.3-10.55-4.97-15.9-4.23-13.59-8.6-27.65-13.35-41.89-14.56-43.3-32.1-89.38-61.67-132.88-40-58.96-116.51-115.43-185.33-109.27-62.88,5.62-90.62,51.07-106,84.76-6.99,15.41-12.94,31.21-18.7,46.48-8.12,21.54-16.51,43.82-28.13,66.02-11.01,21.03-24.26,40.22-39.38,57.02-17.98,19.99-39.24,37.11-63.19,50.88-27.49,15.76-59.62,26.79-92.9,31.91-37.64,5.79-74.26,3.81-108.84-5.88-95.9-26.86-160.8-104.55-218.07-173.1l-3.55-4.25c-53.97-64.46-111.75-129.11-171.75-192.17-3.9-4.1-7.85-8.39-11.67-12.54-23.01-25.02-46.8-50.89-81.79-60.16-120.68-31.99-256,73.83-308.58,120.81-63.19,56.38-117.26,124.44-169.55,190.26-16.4,20.64-33.36,41.99-50.2,62.45-6.5,7.87-12.93,15.56-19.14,22.84-43.12,50.61-83.64,92.06-123.88,126.72-47.57,40.97-94.97,72.83-144.92,97.41-54.63,26.91-114.12,44.11-172.01,49.75-14.43,1.4-28.67,2.11-42.67,2.11Z"/><path class="cls-1" d="M199.39,855.9c-52.21,0-102.64-8.63-148.58-26.02l.35-.94c105.9,40.08,235.71,33.49,356.14-18.09,97.9-41.89,190.71-111.17,283.73-211.83,6.67-7.21,13.48-14.74,20.24-22.36,24.75-27.98,49.32-57.68,73.09-86.4,47.49-57.39,96.6-116.72,151.47-168.03,51.35-48.08,101.34-84.9,148.59-109.46,57.52-29.89,110.82-41.38,158.43-34.15,32.7,4.96,56.66,25.18,79.83,44.73,4.12,3.48,8.39,7.08,12.59,10.48,59.94,48.59,118.7,101.21,174.64,156.39,3.88,3.83,7.79,7.72,11.74,11.64,55.43,55.08,118.26,117.51,203.36,142.3,59.3,17.27,129.67,13.35,188.26-10.49,22.57-9.23,43.26-20.93,61.5-34.77,15.25-11.58,28.62-24.23,40.87-38.69,12.51-14.77,22.24-29.45,31.65-43.64,6.84-10.32,13.91-20.99,21.85-31.34,20.57-26.8,48.88-54.05,103.04-52.86,64.9,1.42,135.02,56.99,172.72,108.02,28.58,38.62,47.69,78.06,66.35,118.45,3.63,7.93,7.17,15.8,10.59,23.41,4.15,9.24,8.08,17.97,12.08,26.61,22.94,50,47.43,97.95,94.56,135.01,46.05,36.22,121.92,58.55,187.61,26.81,93.3-45.08,153.12-138.25,205.9-220.45l.84.54c-27.12,42.24-55.16,85.92-88.38,125.04-37.57,44.25-76.14,75.58-117.93,95.77-66.08,31.93-142.37,9.48-188.67-26.93-47.3-37.2-71.86-85.27-94.85-135.38-4-8.65-7.93-17.38-12.08-26.62-3.42-7.61-6.96-15.47-10.59-23.4-18.63-40.33-37.72-79.73-66.25-118.27-45.91-62.15-116.61-106.4-171.94-107.61-53.75-1.19-81.81,25.87-102.23,52.47-7.92,10.32-14.98,20.98-21.81,31.28-9.42,14.22-19.17,28.92-31.72,43.74-12.3,14.52-25.72,27.22-41.03,38.84-18.31,13.9-39.08,25.64-61.73,34.9-58.78,23.92-129.41,27.85-188.91,10.52-85.34-24.85-148.27-87.38-203.78-142.55-3.95-3.92-7.86-7.81-11.74-11.64-55.92-55.15-114.66-107.75-174.57-156.32-4.21-3.41-8.47-7.01-12.6-10.49-23.07-19.46-46.92-39.58-79.34-44.5-108.88-16.53-226.61,68.83-306.19,143.35-54.82,51.27-103.91,110.58-151.39,167.94-23.77,28.73-48.36,58.43-73.11,86.42-6.76,7.63-13.58,15.16-20.25,22.38-93.11,100.76-186.03,170.12-284.07,212.07-68.43,29.31-139.9,44.12-208.3,44.12Z"/><path class="cls-1" d="M202.68,870.84c-57.34,0-111.75-9.31-162.03-27.76l.34-.94c109.22,40.07,238.01,36.85,362.63-9.07,105.67-38.9,203.47-104.25,298.97-199.76,7.09-7.09,14.27-14.46,21.34-21.9,33.56-35.39,66.28-73.79,97.91-110.92,41.75-49,84.93-99.67,131.36-145.12l2.94-2.88c89.12-87.35,200.04-196.06,301.73-163.27,36.33,11.72,64.19,22.06,90.77,37.4,59.93,34.57,119.65,75.13,177.5,120.56,7.62,6,15.18,12.06,23.19,18.49,52.53,42.15,112.07,89.92,185.9,112.37,73.09,22.23,141.36,12.65,175.55,4.96,21.21-4.81,40.86-10.99,60.09-18.87,14.97-6.14,28.88-12.87,42.54-20.59,12.41-7.01,22.78-13.8,32.81-20.37,9.09-5.95,17.68-11.57,27.39-17.15l1.01-.58c20.3-11.65,48.1-27.6,98.17-19.75,25.82,4.04,55.07,16.93,84.59,37.28,27.07,18.66,53.56,43.17,74.59,69.04,25.37,31.15,44.88,62.28,63.75,92.39,2.4,3.83,4.78,7.62,7.15,11.38,8.86,14.16,18.01,28.8,27.01,42.22,30.1,45.27,59.41,80.79,104.62,107.04,42.34,24.59,114.12,42.27,177.05,11.15,93.6-46.28,155.45-133.09,215.26-217.04l1.4-1.96.81.58-1.4,1.96c-59.89,84.05-121.81,170.96-215.64,217.36-28,13.84-60.66,19.33-94.47,15.84-28.99-2.98-58.65-12.58-83.52-27.02-45.38-26.35-74.77-61.97-104.95-107.35-9.01-13.43-18.17-28.08-27.03-42.25-2.37-3.76-4.75-7.56-7.15-11.38-18.85-30.08-38.35-61.18-63.68-92.29-37.62-46.27-101.23-96.98-158.56-105.96-49.73-7.79-77.34,8.06-97.51,19.63l-1.01.58c-9.69,5.56-18.27,11.17-27.34,17.12-10.04,6.58-20.42,13.37-32.87,20.4-13.7,7.74-27.65,14.49-42.66,20.64-19.28,7.91-38.99,14.09-60.25,18.92-34.28,7.71-102.75,17.31-176.06-4.98-74.01-22.5-133.63-70.34-186.23-112.55-8-6.42-15.56-12.49-23.18-18.48-57.81-45.39-117.49-85.93-177.38-120.48-26.51-15.3-54.31-25.62-90.58-37.32-101.12-32.61-211.79,75.87-300.72,163.03l-2.94,2.88c-46.4,45.41-89.56,96.06-131.3,145.05-31.65,37.14-64.37,75.54-97.95,110.96-7.08,7.45-14.26,14.82-21.36,21.92-45.31,45.31-92.28,84.64-139.61,116.89-51.49,35.08-105.22,63.04-159.72,83.1-59.12,21.79-119.71,34.04-180.08,36.41-7.1.28-14.18.42-21.2.42Z"/><path class="cls-1" d="M209.53,886.01c-62.61,0-123.29-9.91-179.04-29.74l.33-.94c111.34,39.59,242.43,39.57,369.12-.06,111.78-34.93,217.49-98.09,314.22-187.7,7.49-6.94,15.04-14.15,22.45-21.44,43.35-42.72,84.62-90.32,124.53-136.35,35.17-40.56,71.54-82.5,109.45-121.29,6.22-6.37,12.5-12.85,18.84-19.4,84.37-87.12,179.99-185.86,283.33-169.34,32.69,5.23,60.93,9.74,89.25,19.64,59.97,20.94,120.66,49.44,180.36,84.72,13.35,7.91,26.69,16.23,40.8,25.05,49.82,31.11,101.34,63.29,162.29,82.73,47.84,15.26,101.12,21.95,162.86,20.43,22.49-.6,41.73-1.85,58.71-2.96,14.7-.96,30.24-1.92,44.26-2.47,26.16-1.02,45.68-.75,66.94-.03,3.99.13,8.2.14,12.66.14,20.26,0,45.48.02,82.55,12,52.96,17.11,109.95,65.26,145.63,104.61,16.98,18.69,32.16,37.12,46.85,54.95,9.84,11.94,19.13,23.22,28.59,34.14,11.92,13.85,21.88,24.79,31.35,34.43,38.73,39.72,73.03,63.37,114.69,79.08,56.56,21.34,118.81,19.64,166.5-4.53,94.13-47.7,160.53-132.32,224.75-214.15l2.67-3.4.79.62-2.67,3.4c-64.28,81.92-130.75,166.62-225.08,214.43-25.64,12.99-54.42,19.58-85.56,19.58-.57,0-1.14,0-1.72,0-26.89-.21-54.56-5.4-80.03-15-41.8-15.77-76.21-39.49-115.05-79.32-9.48-9.65-19.46-20.6-31.39-34.47-9.47-10.93-18.76-22.21-28.6-34.16-14.68-17.82-29.86-36.24-46.82-54.91-45.42-50.09-101.05-90.06-145.2-104.33-36.92-11.93-62.05-11.94-82.25-11.95-4.46,0-8.68,0-12.69-.14-21.24-.72-40.74-.99-66.86.03-14.01.55-29.54,1.51-44.24,2.46-16.98,1.1-36.23,2.36-58.74,2.96-61.87,1.52-115.24-5.17-163.2-20.47-61.06-19.48-112.64-51.68-162.51-82.83-14.11-8.81-27.44-17.13-40.78-25.04-59.65-35.24-120.27-63.72-180.18-84.64-28.24-9.87-56.43-14.38-89.08-19.6-102.82-16.44-198.25,82.1-282.45,169.05-6.34,6.55-12.62,13.03-18.84,19.4-37.89,38.76-74.25,80.69-109.41,121.25-39.93,46.04-81.21,93.66-124.59,136.41-7.42,7.3-14.97,14.51-22.47,21.46-96.83,89.72-202.68,152.95-314.6,187.92-63.47,19.86-128.06,29.79-190.71,29.79Z"/><path class="cls-1" d="M218.66,901.61c-3.44,0-6.87-.03-10.3-.08-65.98-1.01-129.24-11.8-188.03-32.06l.33-.95c113.87,39.25,247.26,42.43,375.6,8.95,119.24-31.08,230.09-90.17,329.46-175.65,7.9-6.8,15.83-13.85,23.55-20.97,54.18-50,104.33-107.49,152.82-163.08,27.83-31.91,56.6-64.9,85.87-96.16,40.36-43.15,88.5-92.55,139.6-131.77,55.04-42.24,107.36-68.26,159.95-79.54,27.96-5.99,54.3-2.53,79.78.82,2.68.35,5.36.71,8.04,1.05,60.06,7.64,121.71,24.09,183.23,48.87,23.88,9.64,47.83,20.81,73.19,32.62,39.36,18.34,80.06,37.31,123.91,52.07,47.64,16.04,94.04,25.02,134.98,32.95,5.2,1.01,10.27,1.99,15.21,2.96,23.82,4.64,42.03,8.77,57.32,12.99,16.36,4.51,31.39,9.65,45.96,15.71,22.51,9.36,41.59,19.86,61.79,30.98,3.92,2.16,7.85,4.32,11.85,6.5,10.85,5.96,22.44,11.28,35.87,17.44,15.85,7.28,33.82,15.53,55.42,27.06,37.53,20.04,84.44,56.58,132.07,102.88,4.17,4.05,8.29,8.07,12.37,12.04,23.1,22.53,44.92,43.8,67.6,62.37,12.41,10.22,24.09,18.93,35.68,26.64,40.35,27.01,80,43.25,124.76,51.13,32.68,5.75,96.41,10.77,155.97-20.21,95.02-49.42,166.16-132.25,234.95-212.35l3.22-3.75.76.65-3.22,3.75c-68.86,80.17-140.06,163.08-235.25,212.59-59.82,31.12-123.79,26.08-156.6,20.31-44.9-7.9-84.67-24.19-125.14-51.28-11.62-7.73-23.32-16.46-35.76-26.7-22.71-18.59-44.54-39.88-67.66-62.42-4.08-3.98-8.2-7.99-12.37-12.04-47.57-46.24-94.4-82.72-131.85-102.71-21.57-11.52-39.53-19.76-55.37-27.03-13.44-6.17-25.05-11.5-35.93-17.47-3.99-2.17-7.93-4.34-11.85-6.5-20.17-11.1-39.23-21.59-61.7-30.93-14.53-6.04-29.52-11.16-45.84-15.67-15.26-4.21-33.45-8.34-57.24-12.97-4.94-.97-10.01-1.95-15.21-2.96-40.97-7.93-87.4-16.92-135.11-32.98-43.9-14.78-84.63-33.76-124.02-52.11-25.35-11.81-49.29-22.97-73.14-32.6-61.44-24.76-123-41.18-182.98-48.81-2.68-.34-5.36-.69-8.05-1.05-25.39-3.34-51.65-6.8-79.44-.84-117.36,25.16-215.89,122.11-299.03,211.01-29.25,31.25-58.02,64.24-85.85,96.14-48.51,55.62-98.67,113.13-152.9,163.16-7.73,7.13-15.67,14.19-23.58,21-48.55,41.76-100.82,77.78-155.34,107.06-55.96,30.05-114.68,53.2-174.52,68.79-58.97,15.38-118.75,23.17-177.85,23.17Z"/><path class="cls-1" d="M231.4,917.82c-76.5,0-151.21-11.76-221.24-35.16l.32-.95c118.61,39.63,250.74,45.84,382.09,17.97,124.78-26.46,243.98-83.03,344.71-163.59,8.3-6.64,16.6-13.54,24.66-20.51,66.14-57.23,125.34-125.5,182.6-191.53,19.83-22.86,40.33-46.5,60.8-69.32,85.63-95.47,179.1-192.17,297.06-233.85,28.71-10.14,57.19-13.3,86.27-15.89,60.19-5.36,122.8-.98,186.09,13.02,53.31,11.82,106.63,31.09,163.09,51.5,9.31,3.37,18.66,6.74,28.05,10.1,10.32,3.69,20.71,7.35,30.75,10.89,38.37,13.53,74.62,26.3,106.76,40.52,20.87,9.21,39.15,18.68,55.89,28.95,16.22,9.95,31.79,21.03,47.6,33.88,25.18,20.46,48.25,43.27,70.55,65.32,3.25,3.21,6.5,6.43,9.77,9.64,23.85,23.54,50.01,46.52,87.48,76.85,21.55,17.45,44.74,37.59,67.17,57.08,16.91,14.69,34.39,29.87,51.33,44.05,32.06,26.81,58.12,45.24,84.49,59.74,13.19,7.28,26.66,13.63,40.01,18.86,42.66,16.79,86.77,24.37,134.83,23.17,37.22-.79,92.66-7.67,145.44-35.91,96.49-51.62,172.82-133.26,246.64-212.2l2.29-2.44.73.68-2.29,2.44c-73.87,79-150.26,160.7-246.9,212.4-52.96,28.33-108.56,35.23-145.89,36.03-48.2,1.21-92.43-6.4-135.22-23.24-13.4-5.25-26.9-11.61-40.13-18.91-26.43-14.53-52.53-32.99-84.65-59.85-16.95-14.19-34.44-29.38-51.35-44.07-22.43-19.48-45.62-39.62-67.15-57.05-37.49-30.35-63.67-53.36-87.55-76.92-3.27-3.22-6.52-6.43-9.77-9.65-22.29-22.04-45.34-44.83-70.48-65.26-15.78-12.82-31.31-23.88-47.49-33.8-16.71-10.25-34.95-19.7-55.77-28.89-32.1-14.2-68.33-26.97-106.68-40.49-10.04-3.54-20.43-7.2-30.75-10.9-9.39-3.36-18.74-6.74-28.05-10.1-56.42-20.39-109.71-39.66-162.96-51.46-63.19-13.97-125.7-18.35-185.79-12.99-29.02,2.58-57.43,5.73-86.02,15.84-117.73,41.6-211.1,138.2-296.65,233.58-20.47,22.81-40.97,46.45-60.79,69.31-57.28,66.05-116.51,134.35-182.7,191.63-8.07,6.98-16.38,13.89-24.69,20.53-100.85,80.65-220.19,137.29-345.12,163.78-53.99,11.46-108.12,17.16-161.38,17.16Z"/><path class="cls-1" d="M248.82,934.53c-85.28,0-169.41-12.96-248.82-38.67l.31-.95c259.05,83.88,562.98,27.13,774.3-144.59,79.29-64.43,147.6-144.61,213.65-222.15,48.12-56.49,97.88-114.9,151.18-166.28,59.75-57.6,117.92-100.26,177.85-130.42,50.2-25.27,104.92-42.41,162.63-50.93,56.15-8.29,113.61-8.24,170.78.17,57.16,8.41,112.21,24.9,163.59,49.01,52.81,24.78,100.28,56.94,141.08,95.6,51.66,48.94,95.72,109.14,138.34,167.35,79.33,108.38,154.26,210.75,275.56,250.82,96.22,31.79,214.38,15.27,324.18-45.33,99.07-54.68,180.72-135.26,259.68-213.19l.7.71c-79.01,77.98-160.71,158.61-259.91,213.35-51.29,28.31-106.38,47.79-159.33,56.34-59.09,9.54-114.82,5.86-165.65-10.93-54.59-18.04-105.13-51.04-154.52-100.89-44.09-44.5-83.46-98.28-121.53-150.29-42.59-58.18-86.62-118.34-138.22-167.22-165.47-156.76-433.34-196.16-636.94-93.68-133.35,67.12-232.67,183.71-328.71,296.46-66.08,77.58-134.42,157.79-213.78,222.28-104.36,84.8-232.17,143.19-369.6,168.85-52.14,9.74-104.7,14.58-156.82,14.58Z"/></svg>